<?xml version="1.0" encoding="UTF-8"?>
<!-- Generated by Pixelmator Pro 3.3.13 -->
<svg width="40" height="40" viewBox="0 0 40 40" xmlns="http://www.w3.org/2000/svg">
    <g id="SVGRepobgCarrier">
        <path id="Path" fill="#c6eefb" stroke="none"
              d="M 22.915001 0.825001 C 21.123293 -0.260654 18.876707 -0.260654 17.085001 0.825001 L 3.96 8.780001 C 2.277851 9.799271 1.250265 11.623138 1.25 13.59 L 1.25 26.41 C 1.250265 28.376862 2.277851 30.200729 3.96 31.219999 L 17.085001 39.174999 C 18.876707 40.260654 21.123293 40.260654 22.915001 39.174999 L 36.040001 31.219999 C 37.722149 30.200729 38.749737 28.376862 38.75 26.41 L 38.75 13.59 C 38.749737 11.623138 37.722149 9.799271 36.040001 8.780001 L 22.915001 0.825001 Z"/>
    </g>
    <g id="SVGRepotracerCarrier"/>
    <g id="SVGRepoiconCarrier">
        <path id="path1" fill="#000000" stroke="none"
              d="M 9.381967 23.793501 C 9.413366 23.103832 8.879733 22.519333 8.190101 22.487999 C 7.50045 22.456499 6.91595 22.990166 6.884551 23.679832 L 9.381967 23.793501 Z M 15.133767 31.658335 L 15.067783 32.906666 C 15.08975 32.907833 15.111751 32.908333 15.133767 32.908333 L 15.133767 31.658335 Z M 23.882835 31.658335 L 23.882835 32.908333 C 23.904835 32.908333 23.926832 32.907833 23.948833 32.906666 L 23.882835 31.658335 Z M 32.132 23.679832 C 32.100498 22.990166 31.515999 22.456499 30.8265 22.487999 C 30.136833 22.519333 29.603167 23.103832 29.634502 23.793501 L 32.132 23.679832 Z M 6.883266 23.736666 C 6.883266 24.427 7.442901 24.986668 8.133266 24.986668 C 8.823617 24.986668 9.383266 24.427 9.383266 23.736666 L 6.883266 23.736666 Z M 8.133266 21.385 L 9.383266 21.385 C 9.383266 21.365999 9.382833 21.347 9.38195 21.327833 L 8.133266 21.385 Z M 15.133767 13.461666 L 15.133767 12.211666 C 15.111767 12.211666 15.089766 12.21225 15.067783 12.213415 L 15.133767 13.461666 Z M 23.882835 13.461666 L 23.948668 12.213415 C 23.926832 12.21225 23.904835 12.211666 23.882835 12.211666 L 23.882835 13.461666 Z M 30.883333 21.385 L 29.634502 21.327833 C 29.633665 21.347 29.633333 21.365999 29.633333 21.385 L 30.883333 21.385 Z M 29.633333 23.736666 C 29.633333 24.427 30.192833 24.986668 30.883333 24.986668 C 31.573668 24.986668 32.133335 24.427 32.133335 23.736666 L 29.633333 23.736666 Z M 8.133467 22.486666 C 7.443116 22.486666 6.883467 23.046333 6.883467 23.736666 C 6.883467 24.427 7.443116 24.986668 8.133467 24.986668 L 8.133467 22.486666 Z M 13.820967 24.986668 C 14.511333 24.986668 15.070967 24.427 15.070967 23.736666 C 15.070967 23.046333 14.511333 22.486666 13.820967 22.486666 L 13.820967 24.986668 Z M 12.570766 23.736666 C 12.570766 24.427 13.130401 24.986668 13.820767 24.986668 C 14.511117 24.986668 15.070767 24.427 15.070767 23.736666 L 12.570766 23.736666 Z M 15.070767 22.023333 C 15.070767 21.333 14.511117 20.773333 13.820767 20.773333 C 13.130401 20.773333 12.570766 21.333 12.570766 22.023333 L 15.070767 22.023333 Z M 15.070767 23.735001 C 15.070767 23.044666 14.511117 22.485001 13.820767 22.485001 C 13.130401 22.485001 12.570766 23.044666 12.570766 23.735001 L 15.070767 23.735001 Z M 12.570766 25.446667 C 12.570766 26.137001 13.130401 26.696667 13.820767 26.696667 C 14.511117 26.696667 15.070767 26.137001 15.070767 25.446667 L 12.570766 25.446667 Z M 13.820767 22.485001 C 13.130401 22.485001 12.570766 23.044666 12.570766 23.735001 C 12.570766 24.425335 13.130401 24.985001 13.820767 24.985001 L 13.820767 22.485001 Z M 25.195835 24.985001 C 25.886166 24.985001 26.445835 24.425335 26.445835 23.735001 C 26.445835 23.044666 25.886166 22.485001 25.195835 22.485001 L 25.195835 24.985001 Z M 30.883333 24.985001 C 31.573668 24.985001 32.133335 24.425335 32.133335 23.735001 C 32.133335 23.044666 31.573668 22.485001 30.883333 22.485001 L 30.883333 24.985001 Z M 25.195835 22.485001 C 24.505335 22.485001 23.945835 23.044666 23.945835 23.735001 C 23.945835 24.425335 24.505335 24.985001 25.195835 24.985001 L 25.195835 22.485001 Z M 23.945835 23.735001 C 23.945835 24.425335 24.505335 24.985001 25.195835 24.985001 C 25.886166 24.985001 26.445835 24.425335 26.445835 23.735001 L 23.945835 23.735001 Z M 26.445835 22.023333 C 26.445835 21.333 25.886166 20.773333 25.195835 20.773333 C 24.505335 20.773333 23.945835 21.333 23.945835 22.023333 L 26.445835 22.023333 Z M 26.445835 23.735001 C 26.445835 23.044666 25.886166 22.485001 25.195835 22.485001 C 24.505335 22.485001 23.945835 23.044666 23.945835 23.735001 L 26.445835 23.735001 Z M 23.945835 25.446667 C 23.945835 26.137001 24.505335 26.696667 25.195835 26.696667 C 25.886166 26.696667 26.445835 26.137001 26.445835 25.446667 L 23.945835 25.446667 Z M 13.383265 13.481667 C 13.383265 14.172018 13.9429 14.731667 14.633265 14.731667 C 15.323616 14.731667 15.883265 14.172018 15.883265 13.481667 L 13.383265 13.481667 Z M 14.633265 13.461666 L 13.383265 13.461666 L 14.633265 13.461666 Z M 23.383501 13.506668 C 23.383501 14.197018 23.943167 14.756668 24.633501 14.756668 C 25.323832 14.756668 25.883501 14.197018 25.883501 13.506668 L 23.383501 13.506668 Z M 6.884551 23.679832 C 6.665034 28.502832 10.291433 32.654167 15.067783 32.906666 L 15.199751 30.41 C 11.853333 30.233166 9.222217 27.303499 9.381967 23.793501 L 6.884551 23.679832 Z M 15.133767 32.908333 L 23.882835 32.908333 L 23.882835 30.408335 L 15.133767 30.408335 L 15.133767 32.908333 Z M 23.948833 32.906666 C 28.725166 32.654167 32.351501 28.502832 32.132 23.679832 L 29.634502 23.793501 C 29.794333 27.303499 27.163164 30.233166 23.816833 30.41 L 23.948833 32.906666 Z M 9.383266 23.736666 L 9.383266 21.385 L 6.883266 21.385 L 6.883266 23.736666 L 9.383266 23.736666 Z M 9.38195 21.327833 C 9.221433 17.817333 11.852766 14.886816 15.199733 14.709915 L 15.067783 12.213415 C 10.290667 12.465899 6.663983 16.618299 6.884567 21.442167 L 9.38195 21.327833 Z M 15.133767 14.711666 L 23.882835 14.711666 L 23.882835 12.211666 L 15.133767 12.211666 L 15.133767 14.711666 Z M 23.816833 14.709915 C 27.163832 14.886816 29.795168 17.817333 29.634502 21.327833 L 32.132 21.442167 C 32.352501 16.618299 28.725834 12.465899 23.948668 12.213415 L 23.816833 14.709915 Z M 29.633333 21.385 L 29.633333 23.736666 L 32.133335 23.736666 L 32.133335 21.385 L 29.633333 21.385 Z M 8.133467 24.986668 L 13.820967 24.986668 L 13.820967 22.486666 L 8.133467 22.486666 L 8.133467 24.986668 Z M 15.070767 23.736666 L 15.070767 22.023333 L 12.570766 22.023333 L 12.570766 23.736666 L 15.070767 23.736666 Z M 12.570766 23.735001 L 12.570766 25.446667 L 15.070767 25.446667 L 15.070767 23.735001 L 12.570766 23.735001 Z M 13.820767 24.985001 L 25.195835 24.985001 L 25.195835 22.485001 L 13.820767 22.485001 L 13.820767 24.985001 Z M 30.883333 22.485001 L 25.195835 22.485001 L 25.195835 24.985001 L 30.883333 24.985001 L 30.883333 22.485001 Z M 26.445835 23.735001 L 26.445835 22.023333 L 23.945835 22.023333 L 23.945835 23.735001 L 26.445835 23.735001 Z M 23.945835 23.735001 L 23.945835 25.446667 L 26.445835 25.446667 L 26.445835 23.735001 L 23.945835 23.735001 Z M 15.883265 13.481667 L 15.883265 13.461666 L 13.383265 13.461666 L 13.383265 13.481667 L 15.883265 13.481667 Z M 15.883265 13.461666 C 15.883265 11.2897 17.591835 9.583332 19.633333 9.583332 L 19.633333 7.083332 C 16.151901 7.083332 13.383265 9.969034 13.383265 13.461666 L 15.883265 13.461666 Z M 19.633333 9.583332 C 21.674833 9.583332 23.383501 11.2897 23.383501 13.461666 L 25.883501 13.461666 C 25.883501 9.969034 23.114834 7.083332 19.633333 7.083332 L 19.633333 9.583332 Z M 23.383501 13.461666 L 23.383501 13.506668 L 25.883501 13.506668 L 25.883501 13.461666 L 23.383501 13.461666 Z"/>
    </g>
</svg>
